<svg width="24" height="24" viewBox="0 0 24 24" fill="none" xmlns="http://www.w3.org/2000/svg">
<path opacity="0.2" d="M15 3.75C15.488 4.39855 15.7512 5.18842 15.75 6V6.75H8.25V6C8.24877 5.18842 8.51205 4.39855 8.99995 3.75H5.25C5.15151 3.75 5.05398 3.76939 4.96298 3.80708C4.87199 3.84477 4.78931 3.90002 4.71966 3.96966C4.65002 4.03931 4.59477 4.12199 4.55708 4.21298C4.51939 4.30398 4.5 4.40151 4.5 4.5V20.25C4.5 20.3485 4.51939 20.446 4.55708 20.537C4.59477 20.628 4.65002 20.7107 4.71966 20.7803C4.78931 20.85 4.87199 20.9052 4.96298 20.9429C5.05398 20.9806 5.15151 21 5.25 21H18.75C18.8485 21 18.946 20.9806 19.037 20.9429C19.128 20.9052 19.2107 20.85 19.2803 20.7803C19.35 20.7107 19.4052 20.628 19.4429 20.537C19.4806 20.446 19.5 20.3485 19.5 20.25V4.5C19.5 4.40151 19.4806 4.30398 19.4429 4.21298C19.4052 4.12199 19.35 4.03931 19.2803 3.96966C19.2107 3.90002 19.128 3.84477 19.037 3.80708C18.946 3.76939 18.8485 3.75 18.75 3.75H15Z" fill="white"/>
<path d="M9 14.25H15" stroke="#6E7485" stroke-width="1.5" stroke-linecap="round" stroke-linejoin="round"/>
<path d="M9 11.25H15" stroke="#6E7485" stroke-width="1.5" stroke-linecap="round" stroke-linejoin="round"/>
<path d="M15.0002 3.75H18.75C18.9489 3.75 19.1397 3.82902 19.2803 3.96967C19.421 4.11032 19.5 4.30109 19.5 4.5V20.25C19.5 20.4489 19.421 20.6397 19.2803 20.7803C19.1397 20.921 18.9489 21 18.75 21H5.25C5.05109 21 4.86032 20.921 4.71967 20.7803C4.57902 20.6397 4.5 20.4489 4.5 20.25V4.5C4.5 4.30109 4.57902 4.11032 4.71967 3.96967C4.86032 3.82902 5.05109 3.75 5.25 3.75H8.9998" stroke="#6E7485" stroke-width="1.5" stroke-linecap="round" stroke-linejoin="round"/>
<path d="M8.25 6.75V6C8.25 5.00544 8.64509 4.05161 9.34835 3.34835C10.0516 2.64509 11.0054 2.25 12 2.25C12.9946 2.25 13.9484 2.64509 14.6517 3.34835C15.3549 4.05161 15.75 5.00544 15.75 6V6.75H8.25Z" stroke="#6E7485" stroke-width="1.5" stroke-linecap="round" stroke-linejoin="round"/>
</svg>
