<svg width="35" height="35" viewBox="0 0 35 35" fill="none" xmlns="http://www.w3.org/2000/svg">
<path d="M26.25 26.25V30.625H8.75V26.25H6.5625V30.625C6.5625 31.2052 6.79297 31.7616 7.2032 32.1718C7.61344 32.582 8.16984 32.8125 8.75 32.8125H26.25C26.8302 32.8125 27.3866 32.582 27.7968 32.1718C28.207 31.7616 28.4375 31.2052 28.4375 30.625V26.25H26.25Z" fill="#6E7485"/>
<path d="M22.9688 22.9688L21.4222 21.4222L18.5938 24.2506V15.3125H16.4062V24.2506L13.5778 21.4222L12.0312 22.9688L17.5 28.4375L22.9688 22.9688ZM30.625 4.375V2.1875H24.0625V13.125H26.25V8.75H29.5312V6.5625H26.25V4.375H30.625ZM18.5938 13.125H14.2188V2.1875H18.5938C19.4637 2.18837 20.2978 2.53435 20.913 3.14952C21.5282 3.76468 21.8741 4.59877 21.875 5.46875V9.84375C21.8741 10.7137 21.5282 11.5478 20.913 12.163C20.2978 12.7782 19.4637 13.1241 18.5938 13.125ZM16.4062 10.9375H18.5938C18.8838 10.9375 19.162 10.8223 19.3671 10.6171C19.5723 10.412 19.6875 10.1338 19.6875 9.84375V5.46875C19.6875 5.17867 19.5723 4.90047 19.3671 4.69535C19.162 4.49023 18.8838 4.375 18.5938 4.375H16.4062V10.9375ZM9.84375 2.1875H4.375V13.125H6.5625V9.84375H9.84375C10.4236 9.84288 10.9795 9.61213 11.3896 9.20209C11.7996 8.79204 12.0304 8.23614 12.0312 7.65625V4.375C12.0312 3.79484 11.8008 3.23844 11.3905 2.8282C10.9803 2.41797 10.4239 2.1875 9.84375 2.1875ZM6.5625 7.65625V4.375H9.84375L9.84484 7.65625H6.5625Z" fill="#6E7485"/>
</svg>
