<svg width="32" height="32" viewBox="0 0 32 32" fill="none" xmlns="http://www.w3.org/2000/svg">
<path d="M14.2849 14.5552C14.0019 14.5461 13.7189 14.5746 13.4433 14.64V17.4048C13.6177 17.448 13.8305 17.4608 14.1249 17.4608C15.2049 17.4608 15.8737 16.8912 15.8737 15.9328C15.8737 15.0688 15.2977 14.5552 14.2849 14.5552ZM28.6785 11.448H27.8561L27.8993 8.424C27.8947 8.24716 27.8265 8.07789 27.7073 7.9472L20.6417 0.2144C20.5845 0.150048 20.515 0.0978917 20.4372 0.0610525C20.3594 0.0242133 20.2749 0.00344825 20.1889 0L5.40492 0C5.07344 0.00532169 4.75696 0.139042 4.5221 0.373012C4.28723 0.606981 4.1523 0.922949 4.14572 1.2544V11.4464H3.32172C2.86572 11.4464 2.42572 11.6352 2.10572 11.9712C1.77922 12.3127 1.59797 12.7675 1.60012 13.24V22.568C1.60012 23.5568 2.37132 24.36 3.32172 24.36H4.14572V30.744C4.15192 31.0763 4.28711 31.3931 4.5227 31.6275C4.75829 31.8619 5.07581 31.9955 5.40812 32H26.6529C27.3169 32 27.9009 31.4368 27.9009 30.7456V24.3616H28.6801C29.6305 24.3616 30.4017 23.5568 30.4017 22.5664V13.2384C30.4017 12.7648 30.2209 12.3072 29.8977 11.9712C29.7412 11.8059 29.5526 11.6741 29.3436 11.5839C29.1346 11.4937 28.9094 11.4469 28.6817 11.4464M6.32012 2.2048H17.4497V9.528C17.4491 9.69289 17.5121 9.85166 17.6257 9.9712C17.6808 10.0291 17.7471 10.0753 17.8205 10.1069C17.8939 10.1385 17.973 10.155 18.0529 10.1552H25.6673V11.4464H6.32012V2.2048ZM17.8881 15.8768C17.8881 16.7936 17.5937 17.5728 17.0609 18.1008C16.3665 18.7824 15.3393 19.088 14.1377 19.088C13.8705 19.088 13.6305 19.0736 13.4433 19.0464V22.3968H11.5713V13.152C12.2001 13.04 12.9377 12.9568 14.1793 12.9568C15.4321 12.9568 16.3265 13.208 16.9265 13.7088C17.5009 14.1808 17.8865 14.9584 17.8865 15.8768M5.41932 20.6176C5.69932 20.7136 6.05932 20.784 6.45932 20.784C7.31372 20.784 7.84652 20.3808 7.84652 18.9216V13.0272H9.87532V18.9472C9.87532 21.6192 8.64652 22.5488 6.67212 22.5488C6.17055 22.5476 5.67189 22.4726 5.19212 22.3264L5.41932 20.6176ZM6.31852 29.7952V24.36H25.6657V29.7952H6.31852ZM26.6929 21.9648C25.7264 22.2997 24.7125 22.4779 23.6897 22.4928C22.0497 22.4928 20.8625 22.0624 20.0353 21.2288C19.2081 20.4224 18.7537 19.2 18.7665 17.8224C18.7809 14.7088 20.9553 12.9296 23.9041 12.9296C25.0657 12.9296 25.9601 13.1648 26.4001 13.3872L25.9729 15.0832C25.4785 14.8608 24.8641 14.68 23.8769 14.68C22.1825 14.68 20.9009 15.6816 20.9009 17.712C20.9009 19.6432 22.0625 20.784 23.7313 20.784C24.1985 20.784 24.5713 20.728 24.7313 20.6448V18.6848H23.3441V17.0304H26.6929V21.9648ZM19.6657 2.432L20.2817 3.1264L24.4097 7.6912L24.6385 7.968H20.4193C20.0993 7.968 19.8977 7.91467 19.8145 7.808C19.7292 7.70347 19.6796 7.53653 19.6657 7.3072V2.432Z" fill="#6E7485"/>
</svg>
