<svg width="50" height="36" viewBox="0 0 50 36" fill="none" xmlns="http://www.w3.org/2000/svg">
<path d="M17.3672 11.4502V23.9502" stroke="#6E7485" stroke-width="2" stroke-miterlimit="10" stroke-linecap="round"/>
<path d="M23.0998 16.7124L18.1823 11.7949C18.0755 11.688 17.9486 11.6031 17.809 11.5452C17.6693 11.4873 17.5197 11.4575 17.3685 11.4575C17.2174 11.4575 17.0677 11.4873 16.9281 11.5452C16.7884 11.6031 16.6616 11.688 16.5548 11.7949L11.6348 16.7124" stroke="#6E7485" stroke-width="2" stroke-linecap="round" stroke-linejoin="round"/>
<path d="M24.75 1H9.98752C8.80558 0.999997 7.63525 1.23313 6.54353 1.68604C5.45181 2.13896 4.46015 2.80276 3.62532 3.63945C2.79049 4.47613 2.12889 5.46927 1.67841 6.56199C1.22792 7.65471 0.997392 8.82556 1.00002 10.0075V25.4125C1.00002 27.7961 1.94692 30.0821 3.6324 31.7676C4.46697 32.6022 5.45774 33.2642 6.54816 33.7159C7.63857 34.1675 8.80727 34.4 9.98752 34.4H24.75C27.1337 34.4 29.4197 33.4531 31.1051 31.7676C32.7906 30.0821 33.7375 27.7961 33.7375 25.4125V10.01C33.7408 8.82776 33.5108 7.6565 33.0605 6.56333C32.6103 5.47017 31.9488 4.47661 31.1139 3.63959C30.2789 2.80258 29.287 2.13856 28.195 1.68561C27.103 1.23265 25.9323 0.999667 24.75 1ZM48.5 11.295V24.1325C48.5 24.7575 48.3225 25.3725 47.9875 25.9025C47.6483 26.4341 47.1679 26.8608 46.6 27.135C46.036 27.4173 45.4006 27.5252 44.775 27.445C44.1583 27.3711 43.5732 27.1309 43.0825 26.75L35.02 20.28C34.6328 19.9613 34.3196 19.5621 34.1025 19.11C33.8853 18.6579 33.7693 18.164 33.7625 17.6625C33.7625 17.1625 33.875 16.6725 34.095 16.225C34.325 15.805 34.64 15.4375 35.02 15.145L43.0825 8.7275C43.5733 8.34512 44.1596 8.10472 44.7775 8.0325C45.4025 7.9525 46.0375 8.06 46.6 8.3425C47.1607 8.60834 47.6357 9.02575 47.9715 9.54752C48.3073 10.0693 48.4904 10.6746 48.5 11.295Z" stroke="#6E7485" stroke-width="2" stroke-linecap="round" stroke-linejoin="round"/>
</svg>
